<svg xmlns="http://www.w3.org/2000/svg" viewBox="0 0 900 520" font-family="Arial, Helvetica, sans-serif">
  <rect width="900" height="520" fill="#ffffff"/>
  <text x="450.0" y="34" font-size="23" font-weight="bold" text-anchor="middle" fill="#1f2937">Отрицательная обратная связь гасит возмущение</text>
  <line x1="90" y1="378.6" x2="860" y2="378.6" stroke="#e5e7eb" stroke-width="1"/><text x="80" y="383.6" font-size="15" text-anchor="end" fill="#374151">1,0</text><line x1="90" y1="327.1" x2="860" y2="327.1" stroke="#e5e7eb" stroke-width="1"/><text x="80" y="332.1" font-size="15" text-anchor="end" fill="#374151">1,2</text><line x1="90" y1="275.7" x2="860" y2="275.7" stroke="#e5e7eb" stroke-width="1"/><text x="80" y="280.7" font-size="15" text-anchor="end" fill="#374151">1,4</text><line x1="90" y1="224.3" x2="860" y2="224.3" stroke="#e5e7eb" stroke-width="1"/><text x="80" y="229.3" font-size="15" text-anchor="end" fill="#374151">1,6</text><line x1="90" y1="172.9" x2="860" y2="172.9" stroke="#e5e7eb" stroke-width="1"/><text x="80" y="177.9" font-size="15" text-anchor="end" fill="#374151">1,8</text><line x1="90" y1="121.4" x2="860" y2="121.4" stroke="#e5e7eb" stroke-width="1"/><text x="80" y="126.4" font-size="15" text-anchor="end" fill="#374151">2,0</text><text x="90.0" y="454" font-size="15" text-anchor="middle" fill="#374151">0</text><text x="218.3" y="454" font-size="15" text-anchor="middle" fill="#374151">25</text><text x="346.7" y="454" font-size="15" text-anchor="middle" fill="#374151">50</text><text x="475.0" y="454" font-size="15" text-anchor="middle" fill="#374151">75</text><text x="603.3" y="454" font-size="15" text-anchor="middle" fill="#374151">100</text><text x="731.7" y="454" font-size="15" text-anchor="middle" fill="#374151">125</text><text x="860.0" y="454" font-size="15" text-anchor="middle" fill="#374151">150</text>
  <line x1="90" y1="70" x2="90" y2="430" stroke="#374151" stroke-width="2"/>
  <line x1="90" y1="430" x2="860" y2="430" stroke="#374151" stroke-width="2"/>
  <line x1="346.7" y1="70" x2="346.7" y2="430" stroke="#9ca3af" stroke-width="2" stroke-dasharray="6 5"/>
  <text x="354.7" y="88" font-size="15" fill="#4b5563">вход (скорость синтеза) удвоен</text>
  <polyline points="90.0,378.6 95.1,378.6 100.3,378.6 105.4,378.6 110.5,378.6 115.7,378.6 120.8,378.6 125.9,378.6 131.1,378.6 136.2,378.6 141.3,378.6 146.5,378.6 151.6,378.6 156.7,378.6 161.9,378.6 167.0,378.6 172.1,378.6 177.3,378.6 182.4,378.6 187.5,378.6 192.7,378.6 197.8,378.6 202.9,378.6 208.1,378.6 213.2,378.6 218.3,378.6 223.5,378.6 228.6,378.6 233.7,378.6 238.9,378.6 244.0,378.6 249.1,378.6 254.3,378.6 259.4,378.6 264.5,378.6 269.7,378.6 274.8,378.6 279.9,378.6 285.1,378.6 290.2,378.6 295.3,378.6 300.5,378.6 305.6,378.6 310.7,378.6 315.9,378.6 321.0,378.6 326.1,378.6 331.3,378.6 336.4,378.6 341.5,378.6 346.7,378.6 351.8,355.2 356.9,332.9 362.1,312.7 367.2,294.5 372.3,278.0 377.5,263.0 382.6,249.5 387.7,237.3 392.9,226.3 398.0,216.3 403.1,207.2 408.3,199.0 413.4,191.6 418.5,184.9 423.7,178.9 428.8,173.4 433.9,168.4 439.1,164.0 444.2,159.9 449.3,156.2 454.5,152.9 459.6,149.9 464.7,147.2 469.9,144.7 475.0,142.5 480.1,140.5 485.3,138.7 490.4,137.0 495.5,135.5 500.7,134.2 505.8,133.0 510.9,131.9 516.1,130.9 521.2,130.0 526.3,129.2 531.5,128.4 536.6,127.8 541.7,127.2 546.9,126.6 552.0,126.1 557.1,125.7 562.3,125.3 567.4,124.9 572.5,124.6 577.7,124.3 582.8,124.0 587.9,123.8 593.1,123.5 598.2,123.3 603.3,123.1 608.5,123.0 613.6,122.8 618.7,122.7 623.9,122.6 629.0,122.5 634.1,122.4 639.3,122.3 644.4,122.2 649.5,122.1 654.7,122.1 659.8,122.0 664.9,121.9 670.1,121.9 675.2,121.9 680.3,121.8 685.5,121.8 690.6,121.7 695.7,121.7 700.9,121.7 706.0,121.7 711.1,121.6 716.3,121.6 721.4,121.6 726.5,121.6 731.7,121.6 736.8,121.6 741.9,121.5 747.1,121.5 752.2,121.5 757.3,121.5 762.5,121.5 767.6,121.5 772.7,121.5 777.9,121.5 783.0,121.5 788.1,121.5 793.3,121.5 798.4,121.5 803.5,121.5 808.7,121.5 813.8,121.5 818.9,121.5 824.1,121.5 829.2,121.4 834.3,121.4 839.5,121.4 844.6,121.4 849.7,121.4 854.9,121.4 860.0,121.4" fill="none" stroke="#dc2626" stroke-width="4"/>
  <polyline points="90.0,378.6 95.1,378.6 100.3,378.6 105.4,378.6 110.5,378.6 115.7,378.6 120.8,378.6 125.9,378.6 131.1,378.6 136.2,378.6 141.3,378.6 146.5,378.6 151.6,378.6 156.7,378.6 161.9,378.6 167.0,378.6 172.1,378.6 177.3,378.6 182.4,378.6 187.5,378.6 192.7,378.6 197.8,378.6 202.9,378.6 208.1,378.6 213.2,378.6 218.3,378.6 223.5,378.6 228.6,378.6 233.7,378.6 238.9,378.6 244.0,378.6 249.1,378.6 254.3,378.6 259.4,378.6 264.5,378.6 269.7,378.6 274.8,378.6 279.9,378.6 285.1,378.6 290.2,378.6 295.3,378.6 300.5,378.6 305.6,378.6 310.7,378.6 315.9,378.6 321.0,378.6 326.1,378.6 331.3,378.6 336.4,378.6 341.5,378.6 346.7,378.6 351.8,360.1 356.9,349.2 362.1,342.8 367.2,338.9 372.3,336.5 377.5,335.0 382.6,334.0 387.7,333.4 392.9,333.0 398.0,332.7 403.1,332.6 408.3,332.5 413.4,332.4 418.5,332.4 423.7,332.3 428.8,332.3 433.9,332.3 439.1,332.3 444.2,332.3 449.3,332.3 454.5,332.3 459.6,332.3 464.7,332.3 469.9,332.3 475.0,332.3 480.1,332.3 485.3,332.3 490.4,332.3 495.5,332.3 500.7,332.3 505.8,332.3 510.9,332.3 516.1,332.3 521.2,332.3 526.3,332.3 531.5,332.3 536.6,332.3 541.7,332.3 546.9,332.3 552.0,332.3 557.1,332.3 562.3,332.3 567.4,332.3 572.5,332.3 577.7,332.3 582.8,332.3 587.9,332.3 593.1,332.3 598.2,332.3 603.3,332.3 608.5,332.3 613.6,332.3 618.7,332.3 623.9,332.3 629.0,332.3 634.1,332.3 639.3,332.3 644.4,332.3 649.5,332.3 654.7,332.3 659.8,332.3 664.9,332.3 670.1,332.3 675.2,332.3 680.3,332.3 685.5,332.3 690.6,332.3 695.7,332.3 700.9,332.3 706.0,332.3 711.1,332.3 716.3,332.3 721.4,332.3 726.5,332.3 731.7,332.3 736.8,332.3 741.9,332.3 747.1,332.3 752.2,332.3 757.3,332.3 762.5,332.3 767.6,332.3 772.7,332.3 777.9,332.3 783.0,332.3 788.1,332.3 793.3,332.3 798.4,332.3 803.5,332.3 808.7,332.3 813.8,332.3 818.9,332.3 824.1,332.3 829.2,332.3 834.3,332.3 839.5,332.3 844.6,332.3 849.7,332.3 854.9,332.3 860.0,332.3" fill="none" stroke="#0891b2" stroke-width="4"/>
  <text x="695.7" y="109.4" font-size="16" font-weight="bold" text-anchor="middle" fill="#dc2626">без обратной связи: ×2</text>
  <text x="695.7" y="318.3" font-size="16" font-weight="bold" text-anchor="middle" fill="#0891b2">с обратной связью: ×1,18</text>
  <text x="470.0" y="486" font-size="16" text-anchor="middle" fill="#1f2937">время, условные единицы</text>
  <text x="26" y="250.0" font-size="16" text-anchor="middle" fill="#1f2937" transform="rotate(-90 26 250.0)">уровень продукта / исходный уровень</text>
</svg>
